HIERARCHY
ROOT Hips
{
	OFFSET	0.00	0.00	0.00
	CHANNELS 6 Xposition Yposition Zposition Zrotation Xrotation Yrotation
	JOINT Spine
	{
		OFFSET	 0.00	0.01	 0.00
		CHANNELS 3 Zrotation Xrotation Yrotation
		JOINT Spine1
		{
			OFFSET	 0.00	 2.45913012437421	 0.00
			CHANNELS 3 Zrotation Xrotation Yrotation
            JOINT Neck
            {
                OFFSET	 0.00	 2.48462964506057	 0.00
                CHANNELS 3 Zrotation Xrotation Yrotation
                JOINT Head
                {
                    OFFSET	 0.00	 0.927524780924562	 0.00
                    CHANNELS 3 Zrotation Xrotation Yrotation
                    End Site 
                    {
                        OFFSET	 0.00	 1.14999962169752	 0.00
                    }
                }
            }
			JOINT LeftShoulder
			{
				OFFSET	 0.00	 2.48462964506057	 0.00
				CHANNELS 3 Zrotation Xrotation Yrotation
				JOINT LeftUpArm
				{
					OFFSET	 0.00	 1.24881979654096	 0.00
					CHANNELS 3 Zrotation Xrotation Yrotation
					JOINT LeftForeArm
					{
						OFFSET	 0.00	2.59758046908119	 0.00
						CHANNELS 3 Zrotation Xrotation Yrotation
						JOINT LeftHand
						{
							OFFSET	 0.00	2.45542024364365	 0.00
							CHANNELS 3 Zrotation Xrotation Yrotation
							JOINT LeftHandThumb 
							{
								OFFSET	 0.00	0.00	 0.00
								CHANNELS 3 Zrotation Xrotation Yrotation
								End Site
								{
									OFFSET	 0.00	0.00	1.00000003353624
								}
							}
							JOINT L_Wrist_End 
							{
								OFFSET	 0.00	0.99999967115358	 0.00
								CHANNELS 3 Zrotation Xrotation Yrotation
								End Site 
								{
									OFFSET	 0.00	 0.00	 0.00
								}
							}
						}
					}
				}
			}
			JOINT RightShoulder
			{
				OFFSET	 0.00	 2.48462964506057	 0.00
				CHANNELS 3 Zrotation Xrotation Yrotation
				JOINT RightUpArm
				{
					OFFSET	 0.00	 1.24881979654096	 0.00
					CHANNELS 3 Zrotation Xrotation Yrotation
					JOINT RightForeArm
					{
						OFFSET	 0.00	2.59758046908119	 0.00
						CHANNELS 3 Zrotation Xrotation Yrotation
						JOINT RightHand
						{
							OFFSET	 0.00	2.45542024364365	 0.00
							CHANNELS 3 Zrotation Xrotation Yrotation
							JOINT RightHandThumb 
							{
								OFFSET	 0.00	0.00	 0.00
								CHANNELS 3 Zrotation Xrotation Yrotation
								End Site
								{
									OFFSET	 0.00	0.00	1.00000003353624
								}
							}
							JOINT R_Wrist_End 
							{
								OFFSET	 0.00	0.99999967115358	 0.00
								CHANNELS 3 Zrotation Xrotation Yrotation
								End Site 
								{
									OFFSET	 0.00	 0.00	 0.00
								}
							}
						}
					}
				}
			}
		}
	}
	JOINT LeftUpLeg
	{
		OFFSET	 1.2719394002717	 0.00	 0.00
		CHANNELS 3 Zrotation Xrotation Yrotation
		JOINT LeftLowLeg
		{
			OFFSET	 0.00	-4.3429100912261	 0.00
			CHANNELS 3 Zrotation Xrotation Yrotation
			JOINT LeftFoot
			{
				OFFSET	 0.00	-4.48767017425826	 0.00
				CHANNELS 3 Zrotation Xrotation Yrotation
				JOINT LeftToeBase
                {
                    OFFSET	 0.00	0.00	 1.51507020887566
                    CHANNELS 3 Zrotation Xrotation Yrotation
                    End Site 
                    {
                        OFFSET	 0.00	0.00	 0.75000010571191
                    }
                }
			}
		}
	}
	JOINT RightUpLeg
	{
		OFFSET	 -1.2719393604653	 0.00	 0.00
		CHANNELS 3 Zrotation Xrotation Yrotation
		JOINT RightLowLeg
		{
			OFFSET	 0.00	-4.3429100912261	 0.00
			CHANNELS 3 Zrotation Xrotation Yrotation
			JOINT RightFoot
			{
				OFFSET	 0.00	-4.48767017425826	 0.00
				CHANNELS 3 Zrotation Xrotation Yrotation
				JOINT RightToeBase
                {
                    OFFSET	 0.00	0.00	 1.51507020887566
                    CHANNELS 3 Zrotation Xrotation Yrotation
                    End Site 
                    {
                        OFFSET	 0.00	0.00	 0.749999965609858
                    }
                }   
			}
		}
	}
}
MOTION 
Frames:	16 
Frame Time: 0.02 
 -0.5169129943847657 -1.0362899780273438 9.43666015625 -159.739 74.1054 167.333 3.71358 -24.7128 -2.60486 2.06486 7.94127 -3.45993 27.7498 31.4595 -15.7395 -67.1923 -63.9901 -54.1681 -114.7738 1.23572 12.8348 -47.6987 7.55464 -172.705 0.0 -87.2714 0.0 4.98645 -1.00127 -101.118 0.0 0.0 0.0 0.0 0.0 0.0 118.7976 -4.17243 -8.09864 37.5292 10.6666 -16.5219 0.0 81.2709 0.0 -23.2473 7.2021 -43.8993 0.0 0.0 0.0 0.0 0.0 0.0 0.912142 -12.2178 -20.6485 0.0 5.69932 0.0 -0.626599 -1.2639999 20.764 0.0 -12.22916 0.0 7.81245 -9.19092 19.0112 0.0 2.78079 0.0 3.02185 4.2785997 -28.524 0.0 -18.57901 0.0 
  -0.5214139938354492 -1.0313099670410155 9.436240234375 -160.102 73.9061 167.494 3.63429 -24.9366 -2.51299 2.0108 7.75565 -3.26478 27.3941 32.3184 -15.1741 -66.5513 -63.6099 -53.7483 -114.9639 1.24771 12.8789 -47.565 8.49135 -171.752 0.0 -80.2806 0.0 6.11003 -0.0131336 -114.251 0.0 0.0 0.0 0.0 0.0 0.0 118.9115 -4.10098 -8.2018 37.5801 11.7508 -17.6252 0.0 73.881 0.0 -22.3322 6.31398 -41.9904 0.0 0.0 0.0 0.0 0.0 0.0 0.917432 -12.4512 -20.5054 0.0 5.72849 0.0 -0.652745 -1.2875996 20.7993 0.0 -12.2415695 0.0 7.83515 -9.49069 19.2577 0.0 2.87957 0.0 3.02078 4.2578 -28.5344 0.0 -18.59655 0.0 
  -0.5196260070800781 -1.0353900146484376 9.435430297851562 -159.68 74.208 167.155 3.71801 -24.9138 -2.40459 1.75685 7.86997 -3.24091 27.176 32.9785 -14.8537 -65.5491 -63.1978 -52.877 -115.258896 1.35714 12.9549 -47.3894 9.68002 -170.754 0.0 -72.0957 0.0 6.47081 -2.19781 -123.227 0.0 0.0 0.0 0.0 0.0 0.0 119.2265 -3.90859 -8.18028 37.6476 12.6984 -18.1509 0.0 66.2268 0.0 -18.2286 3.94078 -35.0722 0.0 0.0 0.0 0.0 0.0 0.0 0.930111 -12.1056 -20.7301 0.0 5.7192 0.0 -0.601687 -1.3167992 20.9808 0.0 -12.24365 0.0 7.83167 -9.11092 18.9438 0.0 2.80059 0.0 3.03883 4.2712 -28.3136 0.0 -18.65887 0.0 
  -0.5322829818725586 -1.0225700378417968 9.431900024414062 -160.601 73.7221 167.488 3.59496 -25.02 -2.15558 1.79692 7.11962 -2.81424 26.9799 33.9751 -14.4719 -64.9117 -62.7118 -52.3115 -115.992004 1.3879 13.4081 -46.8868 11.1459 -170.233 0.0 -62.894 0.0 6.83149 -5.53107 -129.505 0.0 0.0 0.0 0.0 0.0 0.0 119.753 -3.64467 -8.56575 37.5127 14.007 -19.05 0.0 57.28 0.0 -15.3031 2.36177 -26.9984 0.0 0.0 0.0 0.0 0.0 0.0 1.00013 -12.6263 -20.1178 0.0 5.70703 0.0 -0.780326 -1.4955006 20.8395 0.0 -12.20525 0.0 7.92908 -9.8952 19.7084 0.0 3.15766 0.0 3.07708 4.0781 -28.3847 0.0 -18.61118 0.0 
  -0.5341740036010743 -1.0249400329589844 9.428090209960937 -160.382 73.9153 167.249 3.58137 -25.0043 -2.08857 1.70104 7.14661 -2.73508 26.593 34.6635 -13.9657 -63.7506 -62.2455 -51.2409 -116.9664 1.62586 13.7852 -46.3337 12.6708 -170.188 0.0 -53.0319 0.0 7.12528 -8.88394 -136.306 0.0 0.0 0.0 0.0 0.0 0.0 120.434204 -2.99062 -8.76319 37.3435 15.1083 -20.0067 0.0 47.5916 0.0 -12.99 1.86327 -23.8899 0.0 0.0 0.0 0.0 0.0 0.0 1.04273 -12.3841 -20.1639 0.0 5.67362 0.0 -0.797908 -1.6319008 20.8931 0.0 -12.17064 0.0 7.95319 -9.66692 19.662 0.0 3.13739 0.0 3.08549 3.9835997 -28.3182 0.0 -18.61404 0.0 
  -0.5386690139770508 -1.02875 9.421719970703125 -160.499 73.8218 167.256 3.52866 -25.3072 -2.01048 1.67675 7.28278 -2.58608 26.1085 35.1156 -13.4661 -62.2326 -61.7302 -49.7516 -118.001 1.95362 14.0681 -46.0369 14.2073 -171.173 0.0 -42.3889 0.0 7.34328 -12.952 -135.244 0.0 0.0 0.0 0.0 0.0 0.0 121.2629 -2.03261 -9.04115 37.0737 15.7069 -20.8309 0.0 37.991 0.0 -9.57462 0.81126 -16.1177 0.0 0.0 0.0 0.0 0.0 0.0 1.10467 -12.4042 -20.0551 0.0 5.60221 0.0 -0.882271 -1.8616009 20.8444 0.0 -12.10771 0.0 7.99462 -9.73588 19.7363 0.0 3.137 0.0 3.05664 3.8100996 -28.2696 0.0 -18.57696 0.0 
  -0.5402209854125977 -1.0325299835205077 9.414030151367188 -160.607 73.5478 167.46 3.44948 -25.9183 -2.00939 1.67969 7.75194 -2.48543 25.4795 35.2845 -12.8346 -60.301 -61.2509 -47.9445 -119.0048 2.50171 14.2847 -46.1868 15.4768 -174.737 0.0 -32.1395 0.0 9.48294 -13.7292 -141.392 0.0 0.0 0.0 0.0 0.0 0.0 122.024796 -1.15653 -9.25865 36.9169 16.2191 -21.2233 0.0 28.7528 0.0 -5.46603 -1.23084 -11.8444 0.0 0.0 0.0 0.0 0.0 0.0 1.12845 -12.6592 -20.2026 0.0 5.5899 0.0 -0.875516 -2.0874996 20.8799 0.0 -12.04775 0.0 8.01971 -9.95469 19.6588 0.0 3.09692 0.0 3.02714 3.5861998 -28.2399 0.0 -18.55113 0.0 
  -0.547416000366211 -1.046240005493164 9.404149780273437 -160.749 73.6296 167.583 4.22816 -26.5986 -0.489466 -0.619464 9.02188 -1.65544 28.4756 33.9273 -15.5229 -56.7842 -61.7732 -43.4365 -118.3275 -4.53568 12.8685 -44.0912 32.8127 -260.98 0.0 9.99272 0.0 32.7401 -9.54863 -48.03 0.0 0.0 0.0 0.0 0.0 0.0 123.671906 -0.433739 -8.91649 37.2112 15.2043 -19.5991 0.0 20.7592 0.0 -1.39212 -2.84863 -8.87267 0.0 0.0 0.0 0.0 0.0 0.0 1.17485 -12.3811 -20.1397 0.0 5.34817 0.0 -0.887754 -2.3089008 20.8423 0.0 -12.01426 0.0 8.01512 -9.73451 19.7098 0.0 2.98361 0.0 2.88987 3.3203 -28.3379 0.0 -18.49308 0.0 
  -0.5427119827270508 -1.0433699798583984 9.421890258789062 -160.725 73.5604 167.51 4.17929 -26.0814 -1.31653 0.79459 8.88923 -2.49037 24.4032 33.9019 -12.3871 -57.8857 -61.1279 -44.7451 -127.1596 -4.87808 17.4096 -28.284 27.1533 -312.372 0.0 22.0682 0.0 14.4499 -12.6223 -4.84777 0.0 0.0 0.0 0.0 0.0 0.0 123.6072 -0.133942 -8.78443 37.1292 15.5952 -19.028 0.0 13.9311 0.0 1.51523 -5.83884 -14.9094 0.0 0.0 0.0 0.0 0.0 0.0 1.16673 -12.4611 -20.1713 0.0 5.33849 0.0 -0.81761 -1.7740002 20.9892 0.0 -12.11871 0.0 8.00514 -9.85415 19.8186 0.0 3.00448 0.0 2.97393 3.8674002 -28.3765 0.0 -18.62036 0.0 
  -0.5447370147705078 -1.0662899780273438 9.41458984375 -160.528 73.4705 167.894 3.31508 -26.3575 -1.95182 1.81254 8.50007 -2.28373 23.4172 34.8811 -11.5845 -56.1066 -60.0375 -44.0598 -124.6931 -2.52771 12.8452 -36.5164 20.6983 -314.216 0.0 16.556 0.0 10.4894 -15.3039 2.26658 0.0 0.0 0.0 0.0 0.0 0.0 122.5287 -0.173864 -9.09825 38.1313 14.2773 -16.9689 0.0 9.00657 0.0 2.73753 -8.44361 -23.1244 0.0 0.0 0.0 0.0 0.0 0.0 1.17436 -12.422 -20.7064 0.0 5.20389 0.0 -0.851363 -1.9323997 20.9284 0.0 -12.06659 0.0 7.97146 -9.60657 19.4212 0.0 2.66945 0.0 2.77774 3.6966 -28.6394 0.0 -18.52084 0.0 
  -0.5494499969482421 -1.076240005493164 9.411929931640625 -160.823 73.2995 168.163 3.19723 -26.5087 -1.86582 1.65401 8.24783 -2.06154 23.4389 35.3617 -11.4375 -54.4188 -59.5763 -42.7852 -123.0101 -1.68667 8.99155 -40.4621 15.1245 -318.252 0.0 13.6147 0.0 9.48632 -18.6095 12.5035 0.0 0.0 0.0 0.0 0.0 0.0 122.0083 -0.379544 -9.28636 38.8794 12.6794 -14.7416 0.0 5.95387 0.0 2.49668 -10.6724 -30.0674 0.0 0.0 0.0 0.0 0.0 0.0 1.19967 -12.4834 -20.6058 0.0 5.07801 0.0 -0.894423 -1.9918995 20.8314 0.0 -12.06244 0.0 7.96006 -9.69829 19.4883 0.0 2.6119 0.0 2.72558 3.6191998 -28.6715 0.0 -18.52295 0.0 
  -0.5533499908447266 -1.0885299682617187 9.409810180664062 -161.085 73.0377 168.476 3.34883 -26.7163 -1.5696 1.06441 7.84133 -1.88096 23.7462 36.1703 -11.3272 -53.1498 -59.3445 -42.193 -121.5978 -0.465645 6.74988 -42.4333 9.27853 -326.143 0.0 12.8765 0.0 10.9795 -20.737 26.1535 0.0 0.0 0.0 0.0 0.0 0.0 121.5364 -0.857522 -9.20164 39.7164 10.231 -13.1098 0.0 4.70179 0.0 1.30167 -12.6079 -39.0828 0.0 0.0 0.0 0.0 0.0 0.0 1.22137 -12.6504 -20.5776 0.0 4.99261 0.0 -0.915508 -2.0396004 20.7432 0.0 -12.07842 0.0 7.96532 -9.88646 19.6097 0.0 2.61209 0.0 2.70167 3.4986 -28.7886 0.0 -18.49492 0.0 
  -0.5558390045166015 -1.1029199981689453 9.404710083007812 -161.27 72.5894 168.795 3.67006 -27.1426 -1.1554 0.157701 7.74065 -1.7431 24.3691 36.3087 -11.5231 -51.534 -59.3945 -40.9439 -120.041504 0.671414 13.4747 -43.4673 9.49419 -344.701 0.0 13.0256 0.0 12.913 -20.2225 40.171 0.0 0.0 0.0 0.0 0.0 0.0 121.252396 -1.49688 -8.4428 40.3974 7.03744 -12.875 0.0 4.81867 0.0 0.305525 -12.7666 -43.0593 0.0 0.0 0.0 0.0 0.0 0.0 1.2551 -13.033 -20.6025 0.0 4.98733 0.0 -0.872876 -2.1970005 20.665 0.0 -12.04388 0.0 8.00246 -10.2226 19.3644 0.0 2.57896 0.0 2.62196 3.3479996 -28.6309 0.0 -18.49637 0.0 
  -0.5588999938964844 -1.1138899993896485 9.403300170898438 -161.229 72.4458 168.978 3.75833 -27.118 -0.998794 -0.262675 7.71592 -1.67542 24.5147 36.2352 -11.3824 -50.9306 -59.626 -40.5687 -119.9947 -0.132502 13.0516 -42.7193 6.95261 -345.639 0.0 12.9639 0.0 12.9067 -19.5979 41.3197 0.0 0.0 0.0 0.0 0.0 0.0 121.0465 -2.59926 -8.04323 40.4786 4.54242 -12.9022 0.0 5.40782 0.0 -0.0556675 -12.6176 -44.5506 0.0 0.0 0.0 0.0 0.0 0.0 1.24691 -13.1986 -20.8524 0.0 5.10919 0.0 -0.878394 -2.2945995 20.6978 0.0 -12.0379 0.0 8.03694 -10.3182 19.2663 0.0 2.64178 0.0 2.62339 3.2194996 -28.6929 0.0 -18.50801 0.0 
  -0.5626440048217773 -1.1274199676513672 9.401430053710937 -161.349 72.368 169.128 3.87765 -27.1477 -0.763398 -0.693704 7.83325 -1.54599 24.4693 36.4092 -10.9291 -50.6578 -59.9684 -40.8007 -119.974304 -0.834717 12.7835 -41.6945 4.48597 -346.228 0.0 12.7871 0.0 11.1554 -18.0813 38.0209 0.0 0.0 0.0 0.0 0.0 0.0 120.8733 -3.80451 -8.15657 40.3962 2.53205 -13.499 0.0 6.10653 0.0 0.0622379 -11.3409 -42.883 0.0 0.0 0.0 0.0 0.0 0.0 1.22527 -13.2314 -21.0411 0.0 5.18505 0.0 -0.729856 -2.3363 20.9334 0.0 -12.07891 0.0 8.05839 -10.3377 19.4093 0.0 2.68994 0.0 2.57445 3.1117 -28.855 0.0 -18.50127 0.0 
  -0.5685329818725586 -1.1398200225830077 9.399110107421874 -161.347 72.2793 169.314 3.89315 -27.1891 -0.687132 -1.00653 8.03526 -1.48225 24.3514 36.5179 -10.4467 -50.5792 -60.3237 -41.0456 -119.9338 -1.41609 12.534 -40.6976 2.11652 -346.624 0.0 12.2681 0.0 8.82516 -15.4806 32.5969 0.0 0.0 0.0 0.0 0.0 0.0 120.776596 -4.55686 -7.67094 40.2326 -0.302433 -14.5245 0.0 7.13191 0.0 0.104242 -9.81625 -37.537 0.0 0.0 0.0 0.0 0.0 0.0 1.23704 -13.2864 -21.2526 0.0 5.20864 0.0 -0.798142 -2.4547997 20.9497 0.0 -12.02304 0.0 8.09764 -10.3446 19.433 0.0 2.68922 0.0 2.49638 3.0148 -29.0732 0.0 -18.493309 0.0 
